<?xml version="1.0" encoding="UTF-8" standalone="no"?>
<svg width="106px" height="72px" viewBox="0 0 106 72" version="1.1" xmlns="http://www.w3.org/2000/svg" xmlns:xlink="http://www.w3.org/1999/xlink">
    <!-- Generator: Sketch 39.1 (31720) - http://www.bohemiancoding.com/sketch -->
    <title>Group 3</title>
    <desc>Created with Sketch.</desc>
    <defs></defs>
    <g id="Contact-List" stroke="none" stroke-width="1" fill="none" fill-rule="evenodd">
        <g id="User-Page" transform="translate(-243.000000, -103.000000)" fill="#1B676F">
            <g id="Group-3" transform="translate(247.000000, 90.000000)">
                <path d="M14.450027,48.9377919 C14.450027,58.4219272 18.3299005,67.0438685 24.7963565,73.0792273 L14.450027,83.4255568 L40.3158507,83.4255568 L40.3158507,57.5597331 L30.8317153,67.0438685 C26.0896476,62.7328979 23.0719682,56.2664419 23.0719682,48.9377919 C23.0719682,37.7292683 30.4006183,28.2451329 40.3158507,24.3652594 L40.3158507,15.7433182 C25.6585506,19.6231917 14.450027,32.9872006 14.450027,48.9377919 Z M83.4255568,14.450027 L57.5597331,14.450027 L57.5597331,40.3158507 L67.0438685,30.8317153 C71.7859361,35.1426859 74.8036156,41.6091418 74.8036156,48.9377919 C74.8036156,60.1463155 67.4749655,69.6304508 57.5597331,73.5103244 L57.5597331,82.5633627 C72.2170332,78.6834891 83.4255568,65.3194802 83.4255568,49.368889 C83.4255568,39.8847536 79.5456832,31.2628124 73.0792273,25.2274535 L83.4255568,14.450027 Z" id="Shape" stroke="#FFFFFF" stroke-width="3" transform="translate(48.937792, 48.937792) rotate(45.000000) translate(-48.937792, -48.937792) "></path>
                <g id="dollar-symbol" transform="translate(38.189189, 31.432432)">
                    <g id="Capa_1">
                        <path d="M3.12996199,4.94988171 C4.60906064,3.38322911 6.68183147,2.58775373 9.34707876,2.56229852 L9.34707876,0 L11.238101,0 L11.238101,2.52180159 C13.8782383,2.70114513 15.9049741,3.45265242 17.3147213,4.77690198 C18.7286536,6.10288712 19.4670072,7.85235443 19.5351629,10.0293536 L16.0532427,10.0293536 C15.9623684,9.05395615 15.6867563,8.21335562 15.2383634,7.50813054 C14.402559,6.21222883 13.0681418,5.53188043 11.2398946,5.46708534 L11.2398946,14.8427028 C14.3164676,15.676361 16.4059784,16.4591088 17.5060356,17.1915247 C19.2954222,18.3983331 20.1910122,20.1825121 20.1910122,22.542326 C20.1910122,25.956217 19.0473114,28.3819831 16.7491485,29.8190455 C15.4781041,30.6162564 13.6384976,31.1409809 11.2392967,31.3978472 L11.2392967,35.1351351 L9.34827448,35.1351351 L9.34827448,31.3978472 C5.48850855,31.1548656 2.86929626,29.8352443 1.48884404,27.4320408 C0.733152571,26.1367176 0.355306836,24.3837792 0.355306836,22.1772751 L3.87608774,22.1772751 C3.98250632,23.9348418 4.27007562,25.2180159 4.73759994,26.0279545 C5.56563212,27.477166 7.10152721,28.2940469 9.34707876,28.4733904 L9.34707876,17.9817933 C6.4677986,17.4535976 4.34181848,16.5753928 2.97093198,15.3425506 C1.5982519,14.1102869 0.910716153,12.4036307 0.910716153,10.2208462 C0.91131401,8.27294396 1.65026548,6.51306315 3.12996199,4.94988171 L3.12996199,4.94988171 Z M5.80597071,12.9781085 C6.68362504,13.6966397 7.86319725,14.1964875 9.34767662,14.4793875 L9.34767662,5.43121663 C7.59535724,5.49601172 6.34942288,6.00974418 5.60688427,6.9718355 C4.8637478,7.93392681 4.49188064,8.94230033 4.49188064,9.99464194 C4.49188064,11.2616173 4.9307078,12.2566847 5.80597071,12.9781085 L5.80597071,12.9781085 Z M15.9336713,26.1639084 C16.3820641,25.3956238 16.608652,24.5012202 16.608652,23.48764 C16.608652,21.8828046 15.9982398,20.6632685 14.7774155,19.8296103 C14.076129,19.3436471 12.8941654,18.8790895 11.2369053,18.4463509 L11.2369053,28.5734757 C13.5051754,28.4676051 15.0721591,27.6651874 15.9336713,26.1639084 L15.9336713,26.1639084 Z" id="Shape"></path>
                    </g>
                </g>
            </g>
        </g>
    </g>
</svg>